<svg width="754" height="758" xmlns="http://www.w3.org/2000/svg" xmlns:xlink="http://www.w3.org/1999/xlink" xml:space="preserve" overflow="hidden"><defs><clipPath id="clip0"><rect x="1560" y="507" width="754" height="758"/></clipPath></defs><g clip-path="url(#clip0)" transform="translate(-1560 -507)"><path d="M1560 886C1560 676.684 1728.79 507 1937 507 2145.21 507 2314 676.684 2314 886 2314 1095.32 2145.21 1265 1937 1265 1728.79 1265 1560 1095.32 1560 886Z" fill="#3C547C" fill-rule="evenodd"/><g><g><g><path d="M1951.45 697.56 1951.45 697.544 2087.58 776.133C2096.51 781.298 2102.02 790.818 2102.02 801.131L2102.02 958.293C2102.02 968.612 2096.52 978.148 2087.58 983.307L1951.45 1061.88C1942.52 1067.04 1931.51 1067.04 1922.58 1061.88L1786.45 983.291C1777.52 978.134 1772.02 968.606 1772.02 958.293L1772.02 801.131C1772.02 790.818 1777.53 781.298 1786.45 776.133L1922.58 697.56C1931.51 692.395 1942.52 692.395 1951.45 697.56ZM1934.95 718.977 1809.14 791.61 1937.02 865.431 2064.89 791.61 1939.08 718.977C1937.81 718.234 1936.23 718.234 1934.95 718.977ZM1949.39 1034.51 2075.2 961.874C2076.48 961.138 2077.26 959.78 2077.27 958.31L2077.27 813.044 1949.39 886.865ZM1796.77 813.06 1796.77 958.31C1796.77 959.795 1797.56 961.148 1798.83 961.874L1924.64 1034.51 1924.64 886.881Z"/></g></g></g></g></svg>