<svg width="24" height="24" xmlns="http://www.w3.org/2000/svg" xmlns:xlink="http://www.w3.org/1999/xlink" xml:space="preserve" overflow="hidden"><g transform="translate(-628 -348)"><path d="M641 355.5C641 356.052 640.552 356.5 640 356.5 639.448 356.5 639 356.052 639 355.5 639 354.948 639.448 354.5 640 354.5 640.552 354.5 641 354.948 641 355.5ZM638 359.25C638 358.836 638.336 358.5 638.75 358.5L640.25 358.5C640.664 358.5 641 358.836 641 359.25L641 363.5 641.75 363.5C642.164 363.5 642.5 363.836 642.5 364.25 642.5 364.664 642.164 365 641.75 365L638.75 365C638.336 365 638 364.664 638 364.25 638 363.836 638.336 363.5 638.75 363.5L639.5 363.5 639.5 360 638.75 360C638.336 360 638 359.664 638 359.25Z" fill="#000E19"/><path d="M640 349C646.075 349 651 353.925 651 360 651 366.075 646.075 371 640 371 633.925 371 629 366.075 629 360 629 353.925 633.925 349 640 349ZM630.5 360C630.5 365.247 634.753 369.5 640 369.5 645.247 369.5 649.5 365.247 649.5 360 649.5 354.753 645.247 350.5 640 350.5 634.753 350.5 630.5 354.753 630.5 360Z" fill="#000E19"/></g></svg>