<svg width="754" height="758" xmlns="http://www.w3.org/2000/svg" xmlns:xlink="http://www.w3.org/1999/xlink" xml:space="preserve" overflow="hidden"><defs><clipPath id="clip0"><rect x="233" y="129" width="754" height="758"/></clipPath></defs><g clip-path="url(#clip0)" transform="translate(-233 -129)"><path d="M233 508C233 298.684 401.789 129 610 129 818.211 129 987 298.684 987 508 987 717.316 818.211 887 610 887 401.789 887 233 717.316 233 508Z" fill="#C3CEE1" fill-rule="evenodd"/><g><g><g><path d="M211.918 10.5333 211.918 10.5169 347.699 88.908C356.603 94.0595 362.1 103.556 362.1 113.842L362.1 270.608C362.103 280.901 356.613 290.412 347.699 295.559L211.918 373.934C203.009 379.085 192.024 379.085 183.116 373.934L47.3342 295.543C38.4256 290.399 32.9363 280.895 32.9332 270.608L32.9332 113.842C32.9332 103.556 38.4302 94.0595 47.3342 88.908L183.116 10.5333C192.024 5.38153 203.009 5.38153 211.918 10.5333ZM195.459 31.8963 69.9644 104.346 197.517 177.981 325.069 104.346 199.574 31.8963C198.303 31.1545 196.73 31.1545 195.459 31.8963ZM209.86 346.629 335.355 274.18C336.626 273.446 337.409 272.091 337.413 270.625L337.413 125.725 209.86 199.36ZM57.6207 125.742 57.6207 270.625C57.6207 272.106 58.4107 273.455 59.678 274.18L185.173 346.629 185.173 199.376Z" transform="matrix(1 0 0 1.00253 413 309)"/></g></g></g></g></svg>