<svg width="761" height="765" xmlns="http://www.w3.org/2000/svg" xmlns:xlink="http://www.w3.org/1999/xlink" xml:space="preserve" overflow="hidden"><g transform="translate(-347 -1333)"><path d="M350.5 1715.5C350.5 1506.18 519.289 1336.5 727.5 1336.5 935.711 1336.5 1104.5 1506.18 1104.5 1715.5 1104.5 1924.82 935.711 2094.5 727.5 2094.5 519.289 2094.5 350.5 1924.82 350.5 1715.5Z" stroke="#0206F7" stroke-width="6.875" stroke-miterlimit="8" fill="#0206F7" fill-rule="evenodd"/><g><g><g><path d="M211.917 10.5333 211.917 10.5169 347.699 88.9079C356.603 94.0594 362.1 103.556 362.1 113.842L362.1 270.608C362.103 280.901 356.613 290.412 347.699 295.559L211.917 373.933C203.009 379.085 192.024 379.085 183.115 373.933L47.3342 295.542C38.4256 290.399 32.9362 280.894 32.9331 270.608L32.9331 113.842C32.9331 103.556 38.4302 94.0594 47.3342 88.9079L183.115 10.5333C192.024 5.38153 203.009 5.38153 211.917 10.5333ZM195.459 31.8962 69.9644 104.346 197.516 177.98 325.069 104.346 199.574 31.8962C198.303 31.1545 196.73 31.1545 195.459 31.8962ZM209.86 346.629 335.355 274.179C336.626 273.445 337.409 272.091 337.412 270.624L337.412 125.725 209.86 199.36ZM57.6206 125.742 57.6206 270.624C57.6206 272.106 58.4106 273.455 59.6779 274.179L185.173 346.629 185.173 199.376Z" transform="matrix(1.00253 0 0 1 529 1516)"/></g></g></g></g></svg>