<svg width="195" height="194" xmlns="http://www.w3.org/2000/svg" xmlns:xlink="http://www.w3.org/1999/xlink" xml:space="preserve" overflow="hidden"><defs><clipPath id="clip0"><rect x="2875" y="142" width="195" height="194"/></clipPath></defs><g clip-path="url(#clip0)" transform="translate(-2875 -142)"><path d="M2875 239C2875 185.428 2918.65 142 2972.5 142 3026.35 142 3070 185.428 3070 239 3070 292.571 3026.35 336 2972.5 336 2918.65 336 2875 292.571 2875 239Z" fill="#C3CEE1" fill-rule="evenodd"/><g><g><g><path d="M2976.11 253.229 2931.7 253.229C2929.13 253.229 2926.96 255.396 2926.96 257.969 2926.96 260.542 2929.13 262.708 2931.7 262.708L2953.64 262.708 2960.41 269.073 2967.31 262.708 2976.11 262.708C2978.69 262.708 2980.85 260.542 2980.85 257.969 2980.85 255.396 2978.69 253.229 2976.11 253.229Z"/><path d="M2960.14 276.385 2950.79 267.719 2926.69 267.719 2926.69 274.083C2926.69 277.604 2929.53 280.448 2933.05 280.448L2974.35 280.448C2977.88 280.448 2980.72 277.604 2980.72 274.083L2980.72 267.719 2969.61 267.719 2960.14 276.385Z"/><path d="M2953.64 227.229C2938.74 227.229 2926.69 232.917 2926.69 247.813L2980.58 247.813C2980.58 233.052 2968.53 227.229 2953.64 227.229Z"/><path d="M3018.5 192.292C3019.58 191.208 3019.58 189.583 3018.5 188.5 3017.42 187.417 3015.79 187.417 3014.71 188.5L3001.17 202.448 3000.63 207.458 2963.25 207.458 2963.25 211.521 2964.2 223.031C2978.15 225.875 2986.14 234.813 2986.14 248.083L2986.14 274.219C2986.14 276.521 2985.46 278.688 2984.24 280.583L3006.72 280.583 3012.14 211.521 3012.14 207.458 3006.45 207.458 3006.72 204.75 3018.5 192.292Z"/></g></g></g></g></svg>