<svg width="754" height="759" xmlns="http://www.w3.org/2000/svg" xmlns:xlink="http://www.w3.org/1999/xlink" xml:space="preserve" overflow="hidden"><defs><clipPath id="clip0"><rect x="3433" y="555" width="754" height="759"/></clipPath></defs><g clip-path="url(#clip0)" transform="translate(-3433 -555)"><path d="M3433 934.5C3433 724.908 3601.79 555 3810 555 4018.21 555 4187 724.908 4187 934.5 4187 1144.09 4018.21 1314 3810 1314 3601.79 1314 3433 1144.09 3433 934.5Z" fill="#F18F01" fill-rule="evenodd"/><g><g><g><path d="M3824.92 746.533 3824.92 746.517 3960.7 824.908C3969.6 830.059 3975.1 839.556 3975.1 849.842L3975.1 1006.61C3975.1 1016.9 3969.61 1026.41 3960.7 1031.56L3824.92 1109.93C3816.01 1115.08 3805.02 1115.08 3796.12 1109.93L3660.33 1031.54C3651.43 1026.4 3645.94 1016.89 3645.93 1006.61L3645.93 849.842C3645.93 839.556 3651.43 830.059 3660.33 824.908L3796.12 746.533C3805.02 741.381 3816.01 741.381 3824.92 746.533ZM3808.46 767.896 3682.96 840.346 3810.52 913.98 3938.07 840.346 3812.57 767.896C3811.3 767.154 3809.73 767.154 3808.46 767.896ZM3822.86 1082.63 3948.36 1010.18C3949.63 1009.45 3950.41 1008.09 3950.41 1006.62L3950.41 861.725 3822.86 935.36ZM3670.62 861.742 3670.62 1006.62C3670.62 1008.11 3671.41 1009.46 3672.68 1010.18L3798.17 1082.63 3798.17 935.376Z"/></g></g></g></g></svg>