<svg width="195" height="194" xmlns="http://www.w3.org/2000/svg" xmlns:xlink="http://www.w3.org/1999/xlink" xml:space="preserve" overflow="hidden"><defs><clipPath id="clip0"><rect x="2875" y="142" width="195" height="194"/></clipPath></defs><g clip-path="url(#clip0)" transform="translate(-2875 -142)"><path d="M2875 239C2875 185.428 2918.65 142 2972.5 142 3026.35 142 3070 185.428 3070 239 3070 292.571 3026.35 336 2972.5 336 2918.65 336 2875 292.571 2875 239Z" fill="#C3CEE1" fill-rule="evenodd"/><g><g><g><path d="M3018.65 187.885C3019.16 187.347 3019.15 186.489 3018.61 185.97 3018.09 185.463 3017.26 185.463 3016.73 185.97L3001.44 201.262 3001.44 205.886 2962.17 205.886 2962.17 211.438 2963.97 229.513C2964.92 229.658 2965.84 229.828 2966.74 230.025L2964.88 211.302 2964.88 208.594 3009.47 208.594 3009.47 211.197 3004.15 279.011 2985.08 279.011C2984.49 280.028 2983.74 280.942 2982.86 281.719L3006.66 281.719 3012.18 211.302 3012.18 205.886 3004.15 205.886 3004.15 202.384Z" stroke="#000E19" stroke-width="1.35413"/><path d="M2983.83 265.507C2985.53 264.266 2986.54 262.291 2986.54 260.188L2986.54 259.917C2986.54 257.814 2985.53 255.839 2983.83 254.598L2983.83 249.219C2983.83 239.018 2972.16 231.615 2956.07 231.615 2939.99 231.615 2928.31 239.018 2928.31 249.219L2928.31 254.598C2926.61 255.839 2925.61 257.814 2925.6 259.917L2925.6 260.188C2925.61 262.291 2926.61 264.266 2928.31 265.507L2928.31 273.594C2928.32 278.079 2931.95 281.714 2936.44 281.719L2975.71 281.719C2980.19 281.714 2983.83 278.079 2983.83 273.594ZM2931.02 253.281 2931.02 249.219C2931.02 240.587 2941.56 234.323 2956.07 234.323 2970.59 234.323 2981.13 240.587 2981.13 249.219L2981.13 253.281 2931.02 253.281ZM2928.31 259.917C2928.31 257.748 2930.07 255.99 2932.24 255.99L2979.91 255.99C2982.08 255.99 2983.83 257.748 2983.83 259.917L2983.83 260.188C2983.83 262.356 2982.08 264.115 2979.91 264.115L2932.24 264.115C2930.07 264.115 2928.31 262.356 2928.31 260.188ZM2969.05 266.823 2962.84 273.033 2956.63 266.823ZM2981.13 273.594C2981.13 276.585 2978.7 279.011 2975.71 279.011L2936.44 279.011C2933.45 279.011 2931.02 276.585 2931.02 273.594L2931.02 266.823 2952.8 266.823 2962.84 276.863 2972.88 266.823 2981.13 266.823Z" stroke="#000E19" stroke-width="1.35413"/></g></g></g></g></svg>