<svg width="195" height="194" xmlns="http://www.w3.org/2000/svg" xmlns:xlink="http://www.w3.org/1999/xlink" xml:space="preserve" overflow="hidden"><defs><clipPath id="clip0"><rect x="2875" y="142" width="195" height="194"/></clipPath></defs><g clip-path="url(#clip0)" transform="translate(-2875 -142)"><path d="M2875 239C2875 185.428 2918.65 142 2972.5 142 3026.35 142 3070 185.428 3070 239 3070 292.571 3026.35 336 2972.5 336 2918.65 336 2875 292.571 2875 239Z" fill="#C3CEE1" fill-rule="evenodd"/><g><g><g><path d="M2974.35 186.728 2928.31 214.632 2928.31 266.263 2974.35 294.167 3020.4 266.263 3020.4 214.632ZM3016.43 215.396 2997.04 227.149 2954.96 201.649 2974.35 189.896ZM2974.35 240.895 2932.28 215.396 2952.35 203.232 2994.42 228.732ZM2931.02 217.798 2973 243.242 2973 290.179 2931.02 264.736ZM2975.71 290.179 2975.71 243.242 3017.69 217.798 3017.69 264.736Z" stroke="#000E19" stroke-width="1.35413"/><path d="M2982.44 245.572 2981.13 246.365 2981.13 258.098 2985.23 255.638 2992 251.575 2993.31 250.783 2993.31 239.052 2989.21 241.513ZM2990.6 249.25 2983.83 253.313 2983.83 247.896 2990.6 243.834Z" stroke="#000E19" stroke-width="1.35413"/></g></g></g></g></svg>