<svg width="195" height="194" xmlns="http://www.w3.org/2000/svg" xmlns:xlink="http://www.w3.org/1999/xlink" xml:space="preserve" overflow="hidden"><defs><clipPath id="clip0"><rect x="2875" y="142" width="195" height="194"/></clipPath></defs><g clip-path="url(#clip0)" transform="translate(-2875 -142)"><path d="M2875 239C2875 185.428 2918.65 142 2972.5 142 3026.35 142 3070 185.428 3070 239 3070 292.571 3026.35 336 2972.5 336 2918.65 336 2875 292.571 2875 239Z" fill="#C3CEE1" fill-rule="evenodd"/><g><g><g><path d="M2981.13 238.857C2980.06 238.409 2978.92 238.164 2977.77 238.137 2975.73 238.137 2974.35 239.125 2974.35 240.888 2974.35 243.506 2977.39 246.847 2981.13 248.336 2982.19 248.785 2983.33 249.029 2984.48 249.057 2986.52 249.057 2987.9 248.068 2987.9 246.305 2987.9 243.687 2984.86 240.353 2981.13 238.857ZM2984.48 246.348C2983.67 246.323 2982.87 246.144 2982.13 245.822 2979.18 244.639 2977.18 242.196 2977.07 240.947 2977.3 240.876 2977.53 240.844 2977.77 240.852 2978.58 240.878 2979.38 241.056 2980.12 241.378 2983.08 242.561 2985.07 245.005 2985.18 246.262 2984.95 246.329 2984.72 246.358 2984.48 246.348Z" stroke="#000E19" stroke-width="1.35413"/><path d="M2959.46 234.253C2959.46 231.262 2955.82 227.382 2951.33 225.586 2950.01 225.027 2948.6 224.722 2947.16 224.686 2944.79 224.686 2943.21 225.78 2943.21 227.753 2943.21 230.744 2946.85 234.625 2951.33 236.42 2952.66 236.979 2954.07 237.285 2955.51 237.321 2957.87 237.321 2959.46 236.227 2959.46 234.253ZM2945.92 227.646C2946.29 227.438 2946.73 227.35 2947.16 227.394 2948.25 227.427 2949.32 227.667 2950.32 228.101 2954.09 229.608 2956.55 232.549 2956.74 234.074 2956.75 234.168 2956.75 234.265 2956.74 234.36 2956.36 234.564 2955.93 234.652 2955.5 234.613 2954.41 234.579 2953.34 234.339 2952.34 233.905 2948.54 232.387 2946.07 229.41 2945.92 227.896 2945.91 227.814 2945.91 227.729 2945.92 227.646Z" stroke="#000E19" stroke-width="1.35413"/><path d="M2965.55 246.17C2963.9 245.471 2962.13 245.089 2960.33 245.043 2957.38 245.043 2955.4 246.411 2955.4 248.878 2955.4 252.618 2959.94 257.467 2965.55 259.711 2967.21 260.411 2968.98 260.793 2970.77 260.838 2973.73 260.838 2975.71 259.47 2975.71 257.003 2975.71 253.271 2971.16 248.413 2965.55 246.17ZM2970.77 258.13C2969.32 258.083 2967.89 257.766 2966.56 257.197 2961.72 255.261 2958.1 251.208 2958.1 248.878 2958.1 248.13 2958.85 247.751 2960.33 247.751 2961.78 247.799 2963.21 248.115 2964.55 248.684 2969.38 250.619 2973 254.672 2973 257.003 2973 257.75 2972.25 258.13 2970.77 258.13Z" stroke="#000E19" stroke-width="1.35413"/><path d="M3007.81 257.448C3008.17 257.449 3008.53 257.481 3008.88 257.545 3009.6 257.682 3010.28 257.93 3010.92 258.281L3010.92 235.218C3010.92 235.218 3006.14 223.843 3001.39 212.509 3000.68 212.74 2999.94 212.857 2999.19 212.857 2995.94 212.857 2993.31 210.735 2993.31 208.117 2993.51 205.774 2995.31 203.884 2997.64 203.567 2994.49 196.053 2992.01 190.123 2991.96 189.976 2986.78 189.012 2981.52 188.532 2976.25 188.542 2959.24 188.542 2942.05 193.357 2929.67 202.032L2929.67 258.245 3010.92 291.431 3010.92 269.72C3010.56 269.784 3010.21 269.817 3009.85 269.817 3009.52 269.818 3009.2 269.789 3008.88 269.732 3005.43 269.037 3002.91 266.069 3002.79 262.555 3002.68 259.848 3004.78 257.563 3007.49 257.451 3007.59 257.447 3007.7 257.446 3007.81 257.448ZM2976.25 191.25C2980.86 191.243 2985.47 191.621 2990.02 192.381 2990.62 193.803 2991.78 196.591 2994.1 202.131 2991.98 203.391 2990.66 205.653 2990.6 208.117 2990.6 212.225 2994.46 215.565 2999.2 215.565 2999.38 215.565 2999.55 215.565 2999.73 215.55 3002.81 222.879 3005.76 229.925 3007.31 233.61 3007.32 233.627 3007.31 233.633 3007.3 233.626L2932.82 203.209C2932.81 203.205 2932.81 203.197 2932.81 203.19 2932.81 203.188 2932.82 203.186 2932.82 203.184 2944.47 195.583 2960.17 191.25 2976.25 191.25ZM3008.21 272.365 3008.21 287.396 2932.38 256.426 2932.38 205.955 3008.21 236.929 3008.21 254.75C3008.07 254.743 3007.94 254.74 3007.8 254.74 3003.61 254.673 3000.15 258.02 3000.08 262.216 3000.08 262.329 3000.08 262.441 3000.08 262.554 3000.2 267.308 3003.56 271.365 3008.21 272.365Z" stroke="#000E19" stroke-width="1.35413"/></g></g></g></g></svg>